<svg width="20" height="20" viewBox="0 0 20 20" fill="none" xmlns="http://www.w3.org/2000/svg">
<g clip-path="url(#clip0_9697_89549)">
<path d="M10 20C15.5228 20 20 15.5228 20 10C20 4.47715 15.5228 0 10 0C4.47715 0 0 4.47715 0 10C0 15.5228 4.47715 20 10 20Z" fill="#F0F0F0"/>
<path d="M0 10C0 4.47719 4.47719 0 10 0C15.5228 0 20 4.47719 20 10" fill="#D80027"/>
<path d="M6.08563 5.21727C6.08563 3.76031 7.10957 2.5432 8.47691 2.24457C8.26676 2.19871 8.04875 2.17383 7.82473 2.17383C6.14383 2.17383 4.78125 3.53641 4.78125 5.2173C4.78125 6.8982 6.14383 8.26078 7.82473 8.26078C8.04867 8.26078 8.26672 8.2359 8.47691 8.19C7.10957 7.89137 6.08563 6.67426 6.08563 5.21727Z" fill="#F0F0F0"/>
<path d="M10.0002 2.39124L10.2161 3.05549H10.9146L10.3495 3.46608L10.5653 4.13034L10.0002 3.71983L9.43516 4.13034L9.65102 3.46608L9.08594 3.05549H9.78438L10.0002 2.39124Z" fill="#F0F0F0"/>
<path d="M8.31281 3.69556L8.52863 4.35985H9.22711L8.66203 4.7704L8.87789 5.43466L8.31281 5.02415L7.74766 5.43466L7.96356 4.7704L7.39844 4.35985H8.09691L8.31281 3.69556Z" fill="#F0F0F0"/>
<path d="M11.6955 3.69556L11.9114 4.35985H12.6099L12.0448 4.7704L12.2607 5.43466L11.6955 5.02415L11.1305 5.43466L11.3463 4.7704L10.7812 4.35985H11.4797L11.6955 3.69556Z" fill="#F0F0F0"/>
<path d="M11.0471 5.65207L11.263 6.31637H11.9614L11.3963 6.72691L11.6122 7.39117L11.0471 6.98066L10.482 7.39117L10.6979 6.72691L10.1328 6.31637H10.8312L11.0471 5.65207Z" fill="#F0F0F0"/>
<path d="M8.96121 5.65207L9.17703 6.31637H9.87555L9.31043 6.72691L9.52633 7.39117L8.96121 6.98066L8.39609 7.39117L8.61195 6.72691L8.04688 6.31637H8.74535L8.96121 5.65207Z" fill="#F0F0F0"/>
</g>
<defs>
<clipPath id="clip0_9697_89549">
<rect width="20" height="20" fill="white"/>
</clipPath>
</defs>
</svg>
